<svg width="33" height="24" viewBox="0 0 33 24" fill="none" xmlns="http://www.w3.org/2000/svg">
<path d="M12.0581 5C12.0581 2.239 14.3079 0 17.0823 0C19.8566 0 22.1065 2.239 22.1065 5C22.1065 7.761 19.8566 10 17.0823 10C14.3079 10 12.0581 7.761 12.0581 5ZM0 5C0 2.239 2.24983 0 5.02419 0C7.79855 0 10.0484 2.239 10.0484 5C10.0484 7.761 7.79855 10 5.02419 10C2.24983 10 0 7.761 0 5ZM24.1161 15V12C24.1161 10.9 23.2118 10 22.1065 10H2.00968C0.904355 10 0 10.9 0 12V22C0 23.1 0.904355 24 2.00968 24H22.1065C23.2118 24 24.1161 23.1 24.1161 22V19L32.1548 24V10L24.1161 15ZM20.0968 20H4.01935V14H20.0968V20Z" fill="#D9D9D9"/>
</svg>
