<svg width="30" height="30" viewBox="0 0 30 30" fill="none" xmlns="http://www.w3.org/2000/svg">
<path d="M29.6602 25.2134L19.4102 14.9297L29.6836 4.77876C30.1055 4.35711 30.1055 3.66996 29.6836 3.24831L26.7617 0.312337C26.5586 0.109318 26.2852 0 25.9961 0C25.707 0 25.4336 0.117126 25.2305 0.312337L15.0039 10.4321L4.76172 0.320146C4.55859 0.117127 4.28516 0.00780891 3.99609 0.00780891C3.70703 0.00780891 3.43359 0.124935 3.23047 0.320146L0.316406 3.25612C-0.105469 3.67777 -0.105469 4.36491 0.316406 4.78657L10.5898 14.9375L0.347656 25.2134C0.144531 25.4164 0.027344 25.6897 0.027344 25.9787C0.027344 26.2676 0.136719 26.5409 0.347656 26.7439L3.26953 29.6799C3.48047 29.8907 3.75391 30 4.03516 30C4.30859 30 4.58984 29.8985 4.80078 29.6799L15.0039 19.4352L25.2148 29.672C25.4258 29.8829 25.6992 29.9922 25.9805 29.9922C26.2539 29.9922 26.5352 29.8907 26.7461 29.672L29.668 26.7361C29.8711 26.5331 29.9883 26.2598 29.9883 25.9708C29.9805 25.6897 29.8633 25.4164 29.6602 25.2134Z" fill="black" fill-opacity="0.37"/>
</svg>
